PathFileType	4	(X/Y/Z)	 s07c0201.trc
DataRate	CameraRate	NumFrames	NumMarkers	Units	OrigDataRate	OrigDataStartFrame	OrigNumFrames
200	200	6	48	mm	200	1501	2000
Frame#	Time	racr			lacr			c7			jug			rlel			rdr			llel			ldr			s2			lic			ric			lasi			rasi			rpsi			lpsi			rgt			lgt			rth1			rth2			rth3			rth4			rlfc			rmfc			rsh1			rsh2			rsh3			rsh4			rlmal			rcal			rtoe			rmt5			lth1			lth2			lth4			lth3			llfc			lmfc			lsh1			lsh2			lsh3			lsh4			llmal			lcal			ltoe			lmt5			SBIKE			LBIKE			RBIKE			
		X1	Y1	Z1	X2	Y2	Z2	X3	Y3	Z3	X4	Y4	Z4	X5	Y5	Z5	X6	Y6	Z6	X7	Y7	Z7	X8	Y8	Z8	X9	Y9	Z9	X10	Y10	Z10	X11	Y11	Z11	X12	Y12	Z12	X13	Y13	Z13	X14	Y14	Z14	X15	Y15	Z15	X16	Y16	Z16	X17	Y17	Z17	X18	Y18	Z18	X19	Y19	Z19	X20	Y20	Z20	X21	Y21	Z21	X22	Y22	Z22	X23	Y23	Z23	X24	Y24	Z24	X25	Y25	Z25	X26	Y26	Z26	X27	Y27	Z27	X28	Y28	Z28	X29	Y29	Z29	X30	Y30	Z30	X31	Y31	Z31	X32	Y32	Z32	X33	Y33	Z33	X34	Y34	Z34	X35	Y35	Z35	X36	Y36	Z36	X37	Y37	Z37	X38	Y38	Z38	X39	Y39	Z39	X40	Y40	Z40	X41	Y41	Z41	X42	Y42	Z42	X43	Y43	Z43	X44	Y44	Z44	X45	Y45	Z45	X46	Y46	Z46	X47	Y47	Z47	X48	Y48	Z48	
1501	7.5050	432.339898	1440.680213	-61.395140	449.455263	1457.372873	-354.521298	410.489743	1514.073298	-199.198879	356.863495	1370.387625	-221.719736	441.312865	1100.916460	50.937701	687.775310	954.388042	-41.130095	454.764485	1163.210669	-543.073751	655.907121	958.440480	-430.865580	-133.385176	1204.370134	-237.934138	-1.674478	1280.509179	-376.204056	34.889207	1254.962718	-98.508833	43.079694	1206.013615	-378.955120	61.642870	1215.248025	-125.963462	-107.736271	1243.145660	-189.604257	-107.663264	1260.795355	-297.241524	16.287488	1139.141373	-61.031053	-42.824991	1115.187273	-415.964597	154.364986	1091.528834	-69.887258	240.388060	1078.957081	-84.677429	310.453298	1029.729293	-86.683545	250.040765	1108.252803	-103.302064	419.416497	943.159686	-124.883035	402.946117	926.122837	-230.912703	333.217901	837.866303	-95.040803	291.785654	760.419553	-103.085523	218.867880	712.701722	-92.357924	302.389817	749.192479	-142.092184	123.637108	615.729966	-80.537528	53.116239	643.415354	-110.916092	199.292036	391.651610	-123.432552	129.757888	438.777311	-54.720414	7.256028	999.797619	-433.199579	63.712519	932.694223	-443.866765	97.206340	947.948920	-439.998790	81.018375	845.210224	-437.418121	161.359381	693.978348	-405.853342	158.721663	675.597091	-315.157855	144.743841	549.312113	-427.109510	165.393425	467.976938	-407.862449	141.450545	380.542437	-410.217878	170.009915	471.699292	-365.584808	132.621083	244.492005	-400.375251	69.739166	198.923606	-368.023526	359.626231	214.371164	-355.996733	285.091288	177.009979	-422.837577	-260.467458	976.932644	-234.668222	-76.514823	83.071058	-437.493793	-83.156578	79.877563	-40.087749	
1502	7.5100	428.754375	1442.986615	-57.722434	452.212528	1456.066047	-350.882430	410.028737	1514.293767	-197.266281	356.948157	1370.259344	-218.722873	440.776478	1101.930715	50.509626	687.784708	954.920261	-41.361379	456.445652	1163.815718	-543.863856	656.697407	958.607685	-431.750369	-132.599407	1203.344454	-242.241624	1.248519	1277.592039	-380.057224	33.360777	1255.883841	-101.034322	45.382830	1203.329424	-381.565991	60.928268	1215.676577	-128.334684	-107.852024	1242.566968	-194.152076	-106.492297	1259.341386	-302.131430	15.477539	1141.149638	-62.850134	-41.326926	1112.716992	-418.155151	154.055036	1095.903911	-71.852684	240.284843	1084.997370	-86.436920	310.854975	1037.296022	-87.526400	249.190352	1114.226390	-105.547819	422.155092	952.270592	-126.354228	406.962636	934.705135	-232.841497	337.575254	846.437263	-96.414212	296.278978	768.866629	-104.212775	223.709254	720.907927	-93.412681	307.189054	757.636152	-143.087905	128.017480	622.679595	-81.222511	56.940098	648.069280	-111.361930	208.010186	399.583165	-124.987590	138.989497	445.595994	-55.090824	6.303138	997.089983	-435.424081	61.437259	928.915433	-446.090261	95.225215	943.483827	-441.939666	76.910834	841.042571	-439.698730	154.567908	688.853117	-406.197482	151.401662	670.581284	-315.196734	137.584569	544.537587	-427.311194	157.792335	463.200476	-407.884103	133.476682	375.860956	-410.301435	162.308137	467.055078	-365.760312	123.977407	239.780459	-400.427486	60.714439	194.873330	-368.095642	350.827723	208.065050	-356.088368	278.316752	168.178296	-418.839394	-260.450636	976.991836	-235.163546	-76.506790	83.051440	-437.524135	-83.159344	79.918838	-40.127962	
1503	7.5150	425.632505	1445.834128	-53.780487	454.900489	1454.462069	-347.036919	409.540040	1514.399677	-195.503154	357.687579	1369.676404	-215.141671	440.550040	1102.886406	49.981286	687.771776	955.461715	-41.618272	458.299907	1164.348464	-544.528717	657.698689	958.705032	-432.783042	-132.033229	1202.535547	-246.362262	4.072137	1274.706546	-383.658869	31.708029	1256.947663	-103.480956	47.897488	1200.851220	-384.310241	60.033166	1216.411273	-130.593982	-108.085716	1242.360073	-198.535943	-105.723482	1258.115159	-306.621733	14.525126	1143.456820	-64.660495	-39.534869	1110.585001	-420.487931	153.542707	1100.337935	-73.865620	239.470203	1090.947768	-87.840847	311.455711	1044.519206	-89.265221	249.088274	1120.896524	-108.840291	424.431808	960.684557	-128.292309	409.673745	942.910253	-234.928090	341.576592	854.726246	-97.801718	300.869687	776.857959	-105.278904	228.366725	728.615828	-94.338096	311.648956	765.414418	-144.134984	132.379041	628.911246	-81.751091	60.775817	651.901417	-111.608729	218.938335	407.976561	-125.104401	148.832839	451.771324	-55.314939	5.618473	994.726535	-437.590155	59.510626	925.587992	-448.275447	93.576067	939.579827	-443.632916	73.302682	837.366632	-441.762745	148.357585	683.823465	-406.321488	144.583733	666.195652	-315.168215	130.701636	540.524180	-427.531071	150.298644	459.096484	-407.834073	125.511600	371.821991	-410.398567	154.782580	462.809578	-365.775514	114.938683	235.789748	-400.259217	51.497845	191.406437	-368.090463	341.682437	202.540436	-356.288595	268.045446	164.265973	-420.297244	-260.425675	977.026738	-235.503941	-76.514433	83.021010	-437.575335	-83.158259	79.981291	-40.166696	
1504	7.5200	421.927868	1448.149487	-50.458924	457.480687	1452.677158	-343.225245	409.111049	1514.322596	-193.703611	357.572943	1369.327850	-212.002862	440.444818	1103.895686	49.278049	687.918472	956.104507	-42.093465	460.154324	1164.635728	-545.122508	658.886758	958.721081	-433.762436	-131.674024	1201.992237	-250.237022	6.890169	1272.122699	-387.106264	29.851231	1257.920683	-105.573021	49.778942	1198.413936	-386.040503	59.010126	1217.288836	-132.748885	-108.369845	1242.228227	-202.739888	-104.425873	1256.049305	-311.041082	13.575296	1145.855164	-66.492940	-38.027770	1108.371104	-422.625840	152.958603	1104.413884	-75.945293	238.972690	1096.299115	-90.039206	311.476702	1051.355242	-90.522462	247.754582	1126.395882	-110.905385	426.770774	969.677824	-131.065634	411.784045	950.812177	-237.082485	345.075268	862.753364	-99.184099	304.718057	784.716757	-106.440048	232.864472	735.695804	-95.295779	315.955927	772.415616	-145.248611	137.342464	633.673594	-82.158245	65.177678	654.890917	-111.637430	229.875774	415.190233	-125.706873	158.788214	457.353831	-55.508753	5.232433	992.729241	-439.668174	58.010003	922.589979	-450.173099	92.299171	936.022562	-445.162234	70.248689	834.189273	-443.508586	142.822690	680.274612	-406.894419	138.384441	662.376731	-315.076377	124.132476	537.086214	-427.681341	142.974455	455.545293	-407.806964	117.431843	368.547301	-410.524013	147.785967	459.494839	-365.600149	105.610540	232.409365	-399.966748	42.076803	188.650954	-368.143197	332.287316	197.640256	-356.274770	256.726630	162.074807	-423.088086	-260.410692	977.034454	-235.766086	-76.508272	82.996868	-437.588350	-83.156925	80.013201	-40.186688	
1505	7.5250	417.982572	1450.458729	-47.645318	460.104654	1450.552589	-339.263035	408.816638	1513.997657	-191.935049	357.205091	1368.880108	-208.876590	440.267443	1105.188316	48.839380	688.099850	956.712049	-42.629957	462.223835	1164.928139	-545.679091	660.291138	958.825001	-434.649473	-131.499848	1201.805875	-253.903066	9.527648	1269.689307	-390.281183	27.908987	1259.521424	-107.932687	51.837799	1196.554283	-388.104421	57.815394	1218.362592	-134.672478	-108.840808	1242.530967	-206.679555	-103.322559	1255.194976	-316.178753	12.337251	1148.402446	-68.374001	-36.634351	1106.731089	-424.545454	151.988061	1108.651491	-77.568876	238.403959	1101.273226	-92.384815	311.235145	1057.895260	-92.194995	246.282705	1131.627827	-113.355484	427.832493	977.770003	-133.572931	413.288722	958.284028	-239.294041	348.185972	870.048320	-100.571714	308.578403	791.606958	-107.540230	237.210772	741.872089	-96.293595	320.284323	779.770495	-145.737779	142.783049	637.765989	-82.367977	69.780386	657.029274	-111.599590	241.067937	421.937264	-126.142411	168.895921	462.151312	-55.549621	5.094996	991.059505	-441.442533	56.852493	920.231878	-451.720491	91.329417	933.084078	-446.422635	67.755834	831.594854	-444.829696	138.003812	677.235454	-407.321996	133.103903	659.071219	-315.077055	118.085842	534.461689	-427.741046	135.942677	452.794130	-407.830778	109.519737	366.016495	-410.446702	140.510496	456.550169	-365.988884	96.414651	230.096763	-400.112510	32.431993	186.787170	-368.112141	330.233111	187.166194	-350.478581	246.809561	158.406599	-423.088876	-260.457159	976.979204	-235.883646	-76.508651	83.005246	-437.604133	-83.145656	80.008094	-40.224673	
1506	7.5300	414.545728	1452.185918	-44.854735	462.700362	1448.318489	-335.479811	408.693449	1513.459769	-190.265170	357.047821	1368.235015	-206.004930	440.080507	1106.474870	48.477443	687.993443	957.236105	-42.518150	464.288681	1165.070130	-546.219014	661.448214	958.090749	-435.388134	-131.610316	1201.931119	-257.359941	12.028812	1267.604649	-393.090005	25.897551	1261.357000	-110.171468	53.438406	1194.773511	-389.638454	56.432370	1219.713396	-136.465580	-109.835040	1243.766961	-209.939920	-103.075304	1255.188249	-319.597324	10.902625	1151.318854	-69.989392	-35.401882	1105.415694	-426.316181	150.692514	1112.595739	-78.900264	237.367554	1106.546364	-94.449450	310.602778	1064.330385	-93.801927	244.753748	1136.447165	-115.698318	428.407552	985.430225	-135.785727	413.794314	965.490289	-241.060507	350.827841	876.706604	-101.952119	312.535766	797.376751	-108.602361	241.492880	747.186269	-97.251713	324.067600	785.878788	-146.933959	148.440554	640.978417	-82.504696	74.548938	658.280712	-111.400383	252.192315	427.988707	-126.263991	179.222407	466.236068	-55.631359	5.209124	989.826326	-442.928207	56.071296	918.265835	-452.872332	90.620302	930.780219	-447.448035	65.738788	829.554297	-445.846595	134.230205	674.720589	-407.532206	128.813569	656.515223	-315.007221	112.677851	532.546504	-427.798010	129.389190	450.656006	-407.721307	101.876178	364.267707	-410.332035	134.211059	454.527821	-365.935137	87.092106	228.483836	-400.033815	22.707649	185.719856	-368.056663	320.559566	183.351021	-350.523977	236.796618	155.417187	-423.066664	-260.552881	976.934450	-235.939242	-76.524504	82.990128	-437.602572	-83.177894	80.010071	-40.216905	
